<?xml version="1.0" encoding="utf-8"?>
<!-- Generator: Adobe Illustrator 28.1.0, SVG Export Plug-In . SVG Version: 6.00 Build 0)  -->
<svg version="1.1" id="Layer_1" xmlns="http://www.w3.org/2000/svg" xmlns:xlink="http://www.w3.org/1999/xlink" x="0px" y="0px"
	 viewBox="0 0 595.3 841.9" style="enable-background:new 0 0 595.3 841.9;" xml:space="preserve">
<style type="text/css">
	.st0{clip-path:url(#SVGID_00000102538445859972233150000015286109362651966359_);}
	.st1{stroke:#FFFFFF;stroke-miterlimit:10;}
</style>
<g>
	<g>
		<defs>
			<rect id="SVGID_1_" x="124.5" y="267.9" width="346.4" height="306.1"/>
		</defs>
		<clipPath id="SVGID_00000067222984132003358980000017863935394011714964_">
			<use xlink:href="#SVGID_1_"  style="overflow:visible;"/>
		</clipPath>
		<g style="clip-path:url(#SVGID_00000067222984132003358980000017863935394011714964_);">
			<g id="_x3C_Grid_Repeat_x3E__00000125569859121908690280000012919114135119377568_">
				<path class="st1" d="M457.6,329.7H132.1c-4.2,0-7.6-3.4-7.6-7.6V279c0-4.2,3.4-7.6,7.6-7.6h325.5c4.2,0,7.6,3.4,7.6,7.6V322
					C465.2,326.3,461.8,329.7,457.6,329.7z"/>
			</g>
			<g id="_x3C_Grid_Repeat_x3E__00000044138159432424523800000000631154121353186471_">
				<path class="st1" d="M457.6,445.7H132.1c-4.2,0-7.6-3.4-7.6-7.6V395c0-4.2,3.4-7.6,7.6-7.6h325.5c4.2,0,7.6,3.4,7.6,7.6v43.1
					C465.2,442.3,461.8,445.7,457.6,445.7z"/>
			</g>
			<g id="_x3C_Grid_Repeat_x3E__00000039833795828502650000000013859105204270598321_">
				<path class="st1" d="M457.6,561.8H132.1c-4.2,0-7.6-3.4-7.6-7.6v-43.1c0-4.2,3.4-7.6,7.6-7.6h325.5c4.2,0,7.6,3.4,7.6,7.6v43.1
					C465.2,558.4,461.8,561.8,457.6,561.8z"/>
			</g>
		</g>
	</g>
</g>
</svg>
