<?xml version="1.0" encoding="utf-8"?>
<!-- Generator: Adobe Illustrator 28.1.0, SVG Export Plug-In . SVG Version: 6.00 Build 0)  -->
<svg version="1.1" id="Layer_1" xmlns="http://www.w3.org/2000/svg" xmlns:xlink="http://www.w3.org/1999/xlink" x="0px" y="0px"
	 viewBox="0 0 158.3 22.16" style="enable-background:new 0 0 158.3 22.16;" xml:space="preserve">
<style type="text/css">
	.st0{opacity:0.6;}
	.st1{fill:#F79346;}
</style>
<g class="st0">
	<g>
		<g>
			<path class="st1" d="M32.64,0.75c14.28-0.82,31.59,1.75,46,0.74c17.28-1.4,35.93-1.17,53.16-1.22c0,0.91-1.43,2.27,0.01,2.72
				c5.75,1.35,5.77,3.16,5.77,4.98c0,0.91-4.32,0.01-2.88,0.92c-4.32,0.02-11.54,0.46-7.21,1.38c1.44,0.91,7.21-0.02,8.66,1.34
				c1.45,1.36-1.43,2.73,0.02,4.09c1.45-0.01,4.34-0.02,5.79-0.03c1.45,0.9-1.43,2.74,0.02,2.73c4.35,0.89,10.15,0.36,15.94,0.29
				c0.01,0.91,1.48,1.8-1.41,2.29c-50.73,1.64-103.12,2.21-153.76-2.27c-5.77-0.8-1.3-2.35,3.12-3.45
				c-1.47,0.37-1.39-0.99-2.87-0.63c0.08-1.36,3.11-3.44,8.91-3.56l-4.33-0.25C6.15,10.24,7.65,9.42,7.7,8.51
				c1.44,0.09,2.88,0.17,2.91-0.28c0.03-0.45,0.08-1.36,0.1-1.81C9.28,6.33,6.4,6.16,4.96,6.07C6.4,6.16,7.84,6.25,7.86,5.79
				c0.03-0.45,0.08-1.36,0.11-1.81c2.9-0.27,7.17,0.86,10.07,0.57l0.07-1.36C15.26,2.58,10.93,2.8,8.05,2.62
				C9.52,2.25,9.54,1.8,9.6,0.89c4.33-0.21,8.57,1.4,12.95,0.26l-4.31-0.23C21.23-1.18,28.31,1,32.64,0.75z"/>
		</g>
	</g>
</g>
</svg>
