<?xml version="1.0" encoding="utf-8"?>
<!-- Generator: Adobe Illustrator 28.1.0, SVG Export Plug-In . SVG Version: 6.00 Build 0)  -->
<svg version="1.1" id="Layer_1" xmlns="http://www.w3.org/2000/svg" xmlns:xlink="http://www.w3.org/1999/xlink" x="0px" y="0px"
	 viewBox="0 0 43.3 43.3" style="enable-background:new 0 0 43.3 43.3;" xml:space="preserve">
<style type="text/css">
	.st0{fill:#FFFFFF;}
</style>
<g id="Layer_2_00000163795521026874934760000009050736013480283315_">
	<g id="Layer_1-2">
		<path class="st0" d="M35.6,7.7c-4.3-4.3-11.3-4.3-15.6,0.1S15.8,19,20.1,23.3c4.3,4.3,11.2,4.3,15.5,0C39.9,19,39.9,12.1,35.6,7.7
			C35.6,7.7,35.6,7.7,35.6,7.7z M34.2,21.9c-3.5,3.5-9.2,3.5-12.7-0.1S18,12.6,21.5,9.1c3.5-3.5,9.2-3.5,12.7,0
			C37.7,12.6,37.8,18.3,34.2,21.9C34.2,21.8,34.2,21.9,34.2,21.9z"/>
		<path class="st0" d="M38.8,4.5c-6.1-6-15.9-6-21.9,0c-4.5,4.6-5.8,11.5-3.2,17.3l0,0L0.3,35.3c-0.4,0.4-0.4,1,0,1.4L6.6,43
			c0.4,0.4,1,0.4,1.4,0l13.4-13.4l0,0c7.8,3.6,17,0.1,20.5-7.6C44.6,16.1,43.4,9.1,38.8,4.5z M19.3,28.9l-12,12L2.4,36l12-12
			l2.4,2.4l0,0L19.3,28.9z M37.3,25c-5.3,5.3-13.8,5.3-19.1,0l0,0c-5.3-5.3-5.3-13.8,0-19.1s13.8-5.3,19.1,0S42.6,19.7,37.3,25
			C37.4,25,37.4,25,37.3,25L37.3,25z"/>
	</g>
</g>
</svg>
