<?xml version="1.0" encoding="utf-8"?>
<!-- Generator: Adobe Illustrator 28.1.0, SVG Export Plug-In . SVG Version: 6.00 Build 0)  -->
<svg version="1.1" xmlns="http://www.w3.org/2000/svg" xmlns:xlink="http://www.w3.org/1999/xlink" x="0px" y="0px"
	 viewBox="0 0 100 125" style="enable-background:new 0 0 100 125;" xml:space="preserve">
<g id="Layer_2">
</g>
<g id="Layer_1">
	<path d="M60.5,50l34.8-34.8c2.9-2.9,2.9-7.6,0-10.5s-7.6-2.9-10.5,0L50,39.5L15.2,4.7c-2.9-2.9-7.6-2.9-10.5,0s-2.9,7.6,0,10.5
		L39.5,50L4.7,84.8c-2.9,2.9-2.9,7.6,0,10.5c1.4,1.4,3.3,2.2,5.2,2.2s3.8-0.7,5.2-2.2L50,60.5l34.8,34.8c1.4,1.4,3.3,2.2,5.2,2.2
		c1.9,0,3.8-0.7,5.2-2.2c2.9-2.9,2.9-7.6,0-10.5L60.5,50z"/>
</g>
</svg>
